<?xml version="1.0" encoding="utf-8"?>
<!-- Generator: Adobe Illustrator 24.2.1, SVG Export Plug-In . SVG Version: 6.00 Build 0)  -->
<svg version="1.1" id="Layer_1" xmlns="http://www.w3.org/2000/svg" xmlns:xlink="http://www.w3.org/1999/xlink" x="0px" y="0px"
	 viewBox="0 0 960 560" style="enable-background:new 0 0 960 560;" xml:space="preserve">
<style type="text/css">
	.st0{fill:#2441AA;}
	.st1{fill:#FFFFFF;}
</style>
<g>
	<g>
		<g>
			<g>
				<rect x="233.48" y="77.31" class="st0" width="505.83" height="425.37"/>
			</g>
			<g>
				<circle class="st0" cx="221.09" cy="289.99" r="212.68"/>
			</g>
			<g>
				<circle class="st0" cx="739.32" cy="289.99" r="212.68"/>
			</g>
		</g>
		<g>
			<ellipse class="st0" cx="258.53" cy="84.8" rx="61.41" ry="28.46"/>
			<ellipse class="st0" cx="713.86" cy="84.8" rx="61.41" ry="28.46"/>
		</g>
	</g>
	<g>
		<g>
			<circle class="st1" cx="689.05" cy="323.43" r="44.1"/>
		</g>
		<g>
			<circle class="st1" cx="776.89" cy="235.58" r="44.1"/>
		</g>
	</g>
	<g>
		<g>
			<g>
				<rect x="172.12" y="248.06" class="st1" width="124.81" height="57.84"/>
			</g>
			<g>
				<circle class="st1" cx="170.44" cy="276.98" r="28.92"/>
			</g>
			<g>
				<circle class="st1" cx="296.78" cy="276.98" r="28.92"/>
			</g>
		</g>
		<g>
			<g>
				<rect x="204.69" y="216.18" class="st1" width="57.84" height="124.81"/>
			</g>
			<g>
				<circle class="st1" cx="233.61" cy="342.68" r="28.92"/>
			</g>
			<g>
				<circle class="st1" cx="233.61" cy="216.33" r="28.92"/>
			</g>
		</g>
	</g>
</g>
<g>
	<g>
		<g>
			<rect x="415.86" y="390.45" class="st1" width="35.93" height="16.65"/>
		</g>
		<g>
			<circle class="st1" cx="415.38" cy="398.77" r="8.32"/>
		</g>
		<g>
			<circle class="st1" cx="451.75" cy="398.77" r="8.32"/>
		</g>
	</g>
	<g>
		<g>
			<rect x="501.15" y="390.45" class="st1" width="35.93" height="16.65"/>
		</g>
		<g>
			<circle class="st1" cx="500.66" cy="398.77" r="8.32"/>
		</g>
		<g>
			<circle class="st1" cx="537.03" cy="398.77" r="8.32"/>
		</g>
	</g>
</g>
</svg>
